<svg width="211" height="44" viewBox="0 0 211 44" fill="none" xmlns="http://www.w3.org/2000/svg">
<path d="M70.84 24.6C70.84 29.88 74.11 33.24 78.19 33.24C80.68 33.24 82.45 32.1 83.38 30.63V33H88.51V16.26H83.38V18.63C82.48 17.16 80.71 16.02 78.22 16.02C74.11 16.02 70.84 19.32 70.84 24.6ZM83.38 24.63C83.38 27.3 81.67 28.77 79.72 28.77C77.8 28.77 76.06 27.27 76.06 24.6C76.06 21.93 77.8 20.49 79.72 20.49C81.67 20.49 83.38 21.96 83.38 24.63Z" fill="white"/>
<path d="M96.9013 25.23C96.9013 22.35 98.3113 21.51 100.741 21.51H102.151V16.08C99.9013 16.08 98.0713 17.28 96.9013 19.05V16.26H91.7713V33H96.9013V25.23Z" fill="white"/>
<path d="M127.223 33H132.323V23.22C132.323 18.72 129.653 16.08 125.513 16.08C123.083 16.08 120.983 17.43 119.873 19.2C118.733 17.19 116.693 16.08 114.173 16.08C111.983 16.08 110.273 17.01 109.283 18.36V16.26H104.153V33H109.283V23.91C109.283 21.72 110.543 20.52 112.493 20.52C114.443 20.52 115.703 21.72 115.703 23.91V33H120.803V23.91C120.803 21.72 122.063 20.52 124.013 20.52C125.963 20.52 127.223 21.72 127.223 23.91V33Z" fill="white"/>
<path d="M151.841 24.63C151.841 19.32 148.061 16.02 143.141 16.02C138.251 16.02 134.441 19.32 134.441 24.63C134.441 29.94 138.161 33.24 143.081 33.24C148.001 33.24 151.841 29.94 151.841 24.63ZM139.661 24.63C139.661 21.78 141.281 20.46 143.141 20.46C144.941 20.46 146.621 21.78 146.621 24.63C146.621 27.45 144.911 28.8 143.081 28.8C141.221 28.8 139.661 27.45 139.661 24.63Z" fill="white"/>
<path d="M170.643 16.26H165.513V25.35C165.513 27.63 164.253 28.89 162.273 28.89C160.353 28.89 159.063 27.63 159.063 25.35V16.26H153.963V26.04C153.963 30.51 156.573 33.18 160.443 33.18C162.693 33.18 164.493 32.16 165.513 30.72V33H170.643V16.26Z" fill="white"/>
<path d="M179.008 25.23C179.008 22.35 180.418 21.51 182.848 21.51H184.258V16.08C182.008 16.08 180.178 17.28 179.008 19.05V16.26H173.878V33H179.008V25.23Z" fill="white"/>
<path d="M186.26 33H191.39V16.26H186.26V33ZM188.84 14.52C190.64 14.52 191.87 13.29 191.87 11.76C191.87 10.2 190.64 8.97 188.84 8.97C187.01 8.97 185.78 10.2 185.78 11.76C185.78 13.29 187.01 14.52 188.84 14.52Z" fill="white"/>
<path d="M202.037 20.13C203.747 20.13 205.187 21.18 205.187 23.01H198.767C199.067 21.15 200.357 20.13 202.037 20.13ZM210.047 27.45H204.587C204.167 28.35 203.357 29.07 201.917 29.07C200.267 29.07 198.917 28.05 198.737 25.86H210.347C210.407 25.35 210.437 24.84 210.437 24.36C210.437 19.26 206.987 16.02 202.097 16.02C197.117 16.02 193.637 19.32 193.637 24.63C193.637 29.94 197.177 33.24 202.097 33.24C206.267 33.24 209.237 30.72 210.047 27.45Z" fill="white"/>
<path fill-rule="evenodd" clip-rule="evenodd" d="M34 0C39.5228 0 44 4.47715 44 10V34V44H34H10C4.47715 44 0 39.5228 0 34V10C0 4.47715 4.47715 0 10 0H34ZM30 14H14V30H30V14Z" fill="url(#paint0_linear_19_187)"/>
<defs>
<linearGradient id="paint0_linear_19_187" x1="22" y1="0" x2="22" y2="44" gradientUnits="userSpaceOnUse">
<stop stop-color="#A9FF53"/>
<stop offset="1" stop-color="#DDFF53"/>
</linearGradient>
</defs>
</svg>
